<?xml version="1.0" standalone="no"?>
<!DOCTYPE svg PUBLIC "-//W3C//DTD SVG 20010904//EN"
 "http://www.w3.org/TR/2001/REC-SVG-20010904/DTD/svg10.dtd">
<svg width="50px" height="39px" viewBox="0 0 50 39" version="1.0" xmlns="http://www.w3.org/2000/svg"
 width="920.000000pt" height="900.000000pt" viewBox="0 0 920.000000 900.000000"
 preserveAspectRatio="xMidYMid meet">

<g id="WiP" stroke="none" stroke-width="1" fill="none" fill-rule="evenodd">
        <g id="Artboard" transform="translate(-90.000000, -38.000000)">
            <g id="Group" transform="translate(90.000000, 38.000000)">
            <polygon id="Hexagon" fill="green" points="3 14 25 26.5 47 14 40.855176 39 9.08421785 39"></polygon>
                <polygon id="Triangle" fill-opacity="0.262838724" fill="yellow" points="25 8 40 39 10 39"></polygon>
                <circle id="Oval" fill="red" cx="2" cy="9" r="2"></circle>
                <circle id="Oval" fill="purple" cx="25" cy="2" r="2"></circle>
                <circle id="Oval" fill="blue" cx="48" cy="9" r="2"></circle>
<path d="M4456 8970 c-3 -18 -6 -45 -6 -61 l0 -29 87 0 86 0 -7 -255 -6 -255
75 0 75 0 0 153 c0 83 3 196 7 250 l6 97 84 0 83 0 0 60 0 60 -37 0 c-21 1
-128 3 -239 7 l-201 5 -7 -32z"/>
<path d="M5196 8934 c-13 -59 -105 -588 -103 -590 1 -1 81 -16 177 -33 96 -17
185 -33 196 -36 19 -4 22 1 31 55 l9 59 -50 10 c-28 6 -85 16 -126 23 -55 10
-75 18 -73 28 1 8 7 40 13 71 l11 56 102 -18 c56 -10 107 -19 113 -19 11 0 35
108 25 114 -3 2 -53 12 -111 21 -58 10 -106 19 -107 20 -2 1 2 29 8 63 9 50
14 62 28 58 58 -16 214 -37 221 -30 4 5 11 32 15 59 l6 50 -163 29 c-90 15
-175 30 -189 33 -23 4 -28 1 -33 -23z"/>
<path d="M3533 8879 c-97 -16 -164 -48 -224 -108 -90 -90 -111 -196 -68 -337
38 -123 155 -214 274 -214 84 0 265 61 265 90 0 9 -36 88 -45 98 -2 2 -25 -8
-52 -21 -135 -69 -249 -32 -298 97 -23 61 -17 151 13 193 32 45 114 83 179 83
l53 0 0 59 c0 56 -10 75 -38 70 -4 -1 -30 -5 -59 -10z"/>
<path d="M5840 8820 c0 -12 46 -276 55 -316 4 -17 -21 -44 -131 -139 -75 -65
-132 -121 -127 -125 4 -4 38 -17 75 -30 l68 -22 82 88 83 87 12 -84 c6 -46 14
-102 17 -123 3 -22 7 -40 8 -41 12 -10 141 -46 146 -41 3 4 -9 83 -27 176 -18
93 -30 174 -26 179 3 6 62 58 131 117 68 59 121 110 117 114 -4 4 -39 18 -78
30 l-69 23 -78 -84 c-43 -46 -78 -79 -79 -74 0 6 -6 57 -12 115 l-12 105 -55
21 c-84 33 -100 37 -100 24z"/>
<path d="M2833 8638 c-35 -15 -63 -31 -63 -34 0 -3 55 -133 121 -289 l122
-284 36 15 c20 9 48 20 64 26 15 5 27 15 27 21 0 11 -213 514 -234 553 -11 21
-11 21 -73 -8z"/>
<path d="M6547 8552 c-2 -4 -16 -28 -31 -53 l-26 -46 72 -38 c40 -21 74 -39
75 -40 2 -1 -51 -100 -117 -220 -66 -120 -120 -221 -120 -224 0 -7 121 -74
124 -69 2 1 56 100 121 218 65 118 119 216 120 218 2 2 37 -15 79 -38 l75 -41
26 52 c15 28 23 55 18 60 -7 7 -310 176 -383 214 -16 8 -31 12 -33 7z"/>
<path d="M2433 8449 c-29 -17 -53 -33 -53 -35 0 -9 140 -235 186 -302 l44 -62
-73 48 c-39 27 -134 84 -209 126 l-137 77 -71 -41 c-38 -23 -70 -45 -70 -48 0
-8 301 -505 315 -520 10 -11 21 -8 64 18 28 17 51 35 51 39 0 7 -165 281 -199
330 -35 51 -33 54 15 20 54 -37 383 -229 393 -229 3 0 34 17 68 38 l61 38
-161 267 c-89 147 -164 267 -167 267 -3 0 -29 -14 -57 -31z"/>
<path d="M7143 8147 c-16 -23 -96 -133 -177 -245 -81 -112 -149 -209 -152
-216 -6 -16 104 -92 116 -80 11 12 360 494 360 498 0 2 -26 22 -58 44 l-59 41
-30 -42z"/>
<path d="M7303 7694 c-114 -125 -207 -228 -206 -231 3 -7 281 -263 286 -263 3
0 22 21 43 46 l38 47 -25 19 c-13 11 -54 48 -90 83 l-66 62 168 184 c93 101
169 187 169 191 0 7 -95 88 -103 88 -3 0 -99 -102 -214 -226z"/>
<path d="M1598 7853 c-37 -32 -67 -61 -67 -65 -1 -5 267 -590 272 -594 1 -1
27 20 57 47 l54 49 -37 75 -36 74 66 60 66 59 70 -43 70 -44 47 39 c26 22 52
46 59 53 9 12 -38 44 -258 176 -148 88 -275 163 -283 166 -7 3 -43 -21 -80
-52z m237 -270 c-26 -24 -49 -42 -50 -41 -1 2 -26 50 -56 108 l-55 106 104
-65 105 -65 -48 -43z"/>
<path d="M4595 7863 c-591 -28 -1036 -138 -1495 -368 -469 -235 -824 -526
-1153 -947 -399 -511 -633 -1121 -687 -1793 -11 -138 -15 -553 -6 -595 3 -14
8 -59 11 -100 11 -144 73 -417 140 -616 307 -922 902 -1607 1750 -2015 274
-132 518 -214 798 -268 167 -32 185 -35 397 -56 141 -14 557 -14 655 0 381 54
648 126 939 250 587 250 1057 620 1428 1122 317 429 533 957 620 1513 20 127
22 183 23 450 0 319 -10 436 -56 680 -76 398 -216 766 -417 1095 -262 430
-622 812 -1012 1072 -431 288 -930 477 -1445 549 -110 16 -396 31 -490 27z
m-558 -1095 c56 -84 136 -209 178 -278 43 -69 95 -150 116 -182 l39 -56 -93
-129 c-51 -70 -137 -188 -192 -262 l-99 -133 -12 38 c-6 22 -28 91 -49 154
-20 63 -61 198 -91 300 -88 295 -176 594 -177 603 -2 8 239 93 269 96 6 1 56
-68 111 -151z m1489 106 c71 -25 130 -46 131 -48 3 -3 -51 -178 -184 -586 -63
-195 -124 -384 -135 -420 -11 -36 -24 -69 -28 -74 -7 -7 -331 469 -346 509 -4
8 17 52 46 97 111 175 375 568 381 568 4 0 64 -21 135 -46z m-1937 -238 c27
-84 93 -299 146 -477 117 -392 194 -649 201 -668 5 -15 65 61 302 385 84 115
163 222 176 237 l23 28 104 -165 c57 -91 106 -166 109 -166 3 0 50 70 105 156
55 85 107 164 115 175 15 19 27 3 240 -320 124 -187 227 -340 230 -341 6 0 36
90 334 1012 l96 296 98 -35 c53 -19 132 -47 175 -62 l79 -27 210 -504 c233
-561 875 -2111 1018 -2459 50 -123 88 -227 83 -232 -16 -16 -702 -339 -721
-339 -4 0 -82 201 -175 448 -324 866 -594 1583 -599 1587 -2 3 -5 -37 -7 -88
-1 -50 -11 -227 -22 -392 -30 -458 -34 -723 -15 -970 8 -115 20 -293 26 -395
6 -102 26 -394 45 -650 19 -256 37 -520 41 -587 l7 -123 -1386 0 -1386 0 5 32
c2 18 18 197 34 398 16 201 43 532 60 735 16 204 40 451 52 550 28 225 29 518
4 915 -9 151 -20 342 -24 423 l-7 148 -137 -343 c-129 -321 -299 -751 -383
-968 -147 -378 -288 -736 -291 -739 -12 -13 -696 348 -690 364 2 7 143 356
312 776 169 420 456 1135 638 1588 l331 825 185 62 c102 34 190 63 197 63 7 1
33 -65 62 -153z"/>
<path d="M7755 7279 c-121 -99 -229 -186 -239 -194 -18 -13 -12 -23 105 -169
68 -85 126 -155 129 -155 3 -1 25 16 49 37 l43 37 -80 99 -81 99 54 43 c30 24
56 44 59 44 2 0 35 -38 72 -85 37 -47 70 -85 73 -85 6 1 13 5 65 47 l29 23
-63 77 c-35 43 -67 83 -72 89 -6 8 9 26 40 52 l48 41 75 -95 c40 -52 76 -94
79 -94 3 0 24 17 48 38 l43 37 -118 147 c-65 81 -122 147 -128 147 -5 -1 -109
-82 -230 -180z"/>
<path d="M1164 7401 c-52 -38 -116 -121 -145 -187 -14 -31 -24 -77 -27 -125
-4 -67 -1 -84 21 -133 76 -165 271 -245 419 -173 75 37 157 128 208 230 l40
79 -129 100 c-72 55 -132 100 -136 101 -3 1 -37 -38 -75 -88 l-70 -90 43 -38
42 -38 32 38 c34 41 34 41 107 -19 l28 -24 -34 -44 c-37 -50 -106 -90 -153
-90 -86 0 -198 95 -211 177 -11 75 41 174 122 232 19 13 34 27 34 30 0 3 -17
25 -38 49 l-37 43 -41 -30z"/>
<path d="M714 6711 c-17 -10 -45 -36 -63 -57 -36 -44 -119 -209 -123 -244 -3
-22 22 -37 267 -166 l270 -142 32 56 c18 31 31 61 30 66 -2 6 -47 33 -100 61
-53 28 -100 54 -103 58 -9 8 33 74 52 81 26 10 59 7 146 -14 46 -11 86 -20 90
-20 9 0 68 114 68 130 0 5 -9 10 -19 10 -11 0 -57 9 -103 20 -98 24 -134 25
-170 6 -24 -13 -26 -12 -26 2 5 63 -36 129 -99 161 -34 17 -114 13 -149 -8z
m114 -141 c27 -17 32 -25 32 -60 0 -40 -27 -110 -42 -110 -5 0 -40 16 -78 35
l-70 35 20 39 c21 43 64 81 89 81 9 0 31 -9 49 -20z"/>
<path d="M8546 6300 c-43 -14 -95 -69 -107 -115 -6 -22 -12 -76 -14 -120 -2
-91 -14 -122 -51 -131 -50 -13 -101 69 -106 169 -3 63 -1 62 -83 50 l-48 -6 6
-57 c23 -213 178 -351 315 -281 73 37 102 95 102 199 0 95 9 131 36 149 22 14
26 14 50 -2 31 -20 53 -70 61 -137 l6 -50 36 6 c20 3 46 6 59 6 19 0 22 5 22
35 0 87 -70 225 -134 264 -39 25 -109 34 -150 21z"/>
<path d="M490 6041 c-116 -38 -183 -116 -209 -242 -21 -99 12 -192 96 -270 67
-63 145 -92 248 -93 68 -1 88 3 137 27 101 50 159 151 159 279 1 129 -73 227
-208 279 -62 23 -181 34 -223 20z m197 -177 c54 -26 112 -83 114 -112 6 -102
-32 -152 -129 -168 -97 -15 -250 65 -271 143 -39 139 123 217 286 137z"/>
<path d="M8870 5729 c-19 -6 -40 -12 -47 -14 -8 -3 -6 -25 8 -80 11 -43 18
-79 16 -82 -3 -2 -112 -29 -243 -59 -131 -30 -240 -57 -242 -59 -7 -7 23 -128
34 -132 6 -2 116 21 245 51 129 30 237 51 240 48 4 -4 14 -41 23 -83 l17 -77
55 13 c30 7 57 15 59 17 3 2 -19 108 -48 234 -38 166 -57 229 -67 231 -8 1
-31 -3 -50 -8z"/>
<path d="M8444 5007 c4 -39 11 -74 17 -78 6 -3 42 -12 80 -18 38 -7 69 -14 70
-14 0 -1 4 -41 7 -89 l7 -87 -75 -29 -75 -30 3 -73 c2 -41 5 -76 8 -78 2 -2
102 35 221 82 120 48 255 101 301 119 l82 32 0 52 c0 28 -3 71 -6 96 l-6 45
-237 52 c-130 28 -274 60 -320 71 l-84 18 7 -71z m426 -152 c47 -8 90 -15 95
-15 8 -1 -220 -88 -232 -90 -2 0 -3 30 -3 66 l0 66 28 -6 c15 -4 65 -13 112
-21z"/>
<path d="M602 4536 l3 -124 -252 -7 -253 -7 0 -69 0 -69 313 2 312 3 3 115 c2
63 0 152 -3 198 l-7 82 -59 0 -60 0 3 -124z"/>
<path d="M8476 4319 c-2 -8 -7 -37 -10 -66 l-5 -51 37 -6 c66 -11 330 -36 379
-37 l48 0 -70 -25 c-38 -13 -148 -56 -243 -96 -136 -56 -173 -76 -177 -92 -2
-12 -7 -46 -10 -77 l-6 -55 298 -33 c164 -17 305 -31 314 -31 12 0 18 15 23
62 3 34 5 63 3 65 -7 6 -273 33 -349 35 -43 1 -78 3 -78 4 0 2 26 11 58 20 58
17 382 151 393 162 4 4 9 43 13 87 l6 81 -262 28 c-145 15 -284 30 -310 33
-35 4 -49 2 -52 -8z"/>
<path d="M440 3941 c-157 -82 -285 -153 -285 -157 0 -38 30 -176 39 -179 14
-5 605 -75 628 -75 10 0 15 6 12 18 -2 9 -8 43 -14 75 l-11 57 -38 0 c-21 0
-58 3 -82 6 l-45 6 -15 85 -16 85 74 36 c40 20 73 43 73 51 0 31 -22 141 -29
141 -3 0 -134 -67 -291 -149z m86 -206 c7 -47 6 -48 -17 -42 -13 3 -70 9 -126
13 l-103 7 113 53 c126 59 119 61 133 -31z"/>
<path d="M8359 3553 c-61 -142 -80 -307 -46 -394 25 -65 106 -140 182 -168
179 -68 318 -14 396 154 28 59 88 271 78 278 -7 5 -573 177 -582 177 -4 0 -17
-21 -28 -47z m283 -180 l189 -58 -7 -30 c-10 -50 -56 -124 -88 -144 -48 -30
-97 -35 -158 -17 -115 33 -178 113 -165 209 7 51 23 97 34 97 4 0 92 -26 195
-57z"/>
<path d="M684 3322 c-44 -28 -73 -69 -80 -113 l-6 -39 -30 21 c-65 47 -157 30
-199 -37 -41 -66 -25 -172 52 -344 l31 -68 96 34 c54 20 184 67 291 106 l193
72 -5 30 c-9 53 -67 202 -97 249 -43 69 -91 100 -158 104 -44 3 -64 0 -88 -15z
m143 -147 c18 -13 63 -92 63 -113 0 -11 -148 -64 -160 -57 -12 7 -30 71 -30
108 0 60 77 97 127 62z m-262 -101 c9 -4 24 -23 34 -43 34 -66 32 -70 -38 -97
-35 -13 -65 -23 -66 -22 -6 6 -35 100 -35 111 0 7 7 23 16 35 15 22 54 29 89
16z"/>
<path d="M8131 2892 l-33 -67 60 -54 61 -54 -40 -78 c-21 -44 -45 -79 -52 -79
-6 1 -41 7 -77 15 -36 8 -68 14 -72 15 -4 0 -23 -31 -43 -69 l-35 -70 28 -5
c15 -3 153 -28 307 -56 154 -28 288 -52 297 -54 13 -3 28 17 60 80 l43 83 -70
71 c-39 40 -145 143 -236 230 l-165 159 -33 -67z m275 -340 c54 -51 79 -80 64
-74 -14 5 -68 17 -120 27 -52 10 -97 20 -99 22 -7 5 53 114 60 110 3 -1 46
-39 95 -85z"/>
<path d="M923 2665 c-99 -30 -196 -113 -234 -200 -44 -99 -21 -217 58 -305
103 -114 240 -135 386 -57 113 59 187 170 187 278 0 101 -87 229 -185 275 -57
27 -143 31 -212 9z m193 -141 c41 -20 74 -70 74 -114 0 -131 -213 -256 -331
-194 -45 23 -73 91 -59 143 19 71 94 139 185 167 55 17 91 17 131 -2z"/>
<path d="M7761 2255 c-23 -31 -40 -59 -37 -64 3 -4 46 -38 95 -76 l90 -68 -21
-29 c-24 -34 -62 -51 -92 -42 -11 3 -50 19 -86 34 -109 46 -101 47 -152 -19
l-46 -58 107 -44 c77 -31 120 -43 156 -43 l50 0 -3 -36 c-5 -52 34 -120 83
-147 82 -46 167 -23 248 67 52 58 140 187 135 200 -3 8 -91 77 -339 268 l-147
112 -41 -55z m333 -352 c34 -27 29 -49 -20 -92 -51 -46 -103 -39 -132 16 -18
34 -15 55 18 107 l30 47 38 -28 c21 -15 51 -38 66 -50z"/>
<path d="M1442 2144 c-23 -19 -42 -39 -42 -43 0 -4 28 -41 63 -82 34 -42 68
-83 75 -91 11 -14 -11 -36 -175 -173 -103 -87 -189 -162 -190 -169 -2 -6 17
-33 40 -60 l43 -49 237 197 c130 109 237 202 237 207 0 8 -238 299 -244 299
-1 0 -21 -16 -44 -36z"/>
<path d="M7308 1732 c-87 -75 -128 -124 -166 -197 -57 -108 -27 -247 76 -353
65 -66 127 -94 205 -94 73 1 120 19 202 77 67 47 188 171 183 187 -6 18 -401
448 -412 448 -6 0 -46 -31 -88 -68z m216 -276 l117 -129 -23 -24 c-72 -78
-174 -98 -247 -50 -67 45 -121 132 -121 197 0 42 35 108 79 148 l35 32 22 -22
c12 -13 74 -81 138 -152z"/>
<path d="M1753 1590 c-57 -65 -104 -123 -105 -128 -3 -11 155 -152 170 -152 5
0 23 18 41 40 l31 39 -35 33 -35 33 43 48 42 49 41 -30 c114 -83 108 -237 -12
-328 -91 -70 -233 -28 -312 91 l-29 44 -46 -32 c-26 -18 -47 -37 -47 -43 0
-20 71 -103 124 -143 85 -66 139 -86 231 -86 67 0 88 5 130 27 62 32 139 113
168 176 32 70 30 171 -5 237 -29 56 -100 131 -162 174 -36 25 -120 71 -128 71
-2 0 -49 -54 -105 -120z"/>
<path d="M2755 821 c-39 -17 -60 -51 -60 -98 0 -37 5 -49 28 -69 38 -33 68
-38 111 -20 69 29 83 132 22 171 -29 19 -76 27 -101 16z"/>
<path d="M6394 821 c-65 -28 -83 -110 -35 -163 24 -27 36 -33 71 -33 35 0 47
6 71 33 20 22 29 43 29 67 0 65 -78 120 -136 96z"/>
<path d="M3643 759 c-118 -15 -217 -100 -253 -216 -74 -240 72 -410 370 -430
l85 -6 43 158 c24 87 40 161 35 165 -8 8 -192 60 -211 60 -8 0 -32 -72 -32
-98 0 -5 20 -15 44 -22 l44 -12 -18 -62 c-15 -55 -19 -61 -41 -58 -132 16
-211 123 -179 243 40 151 173 200 329 120 l60 -30 26 43 c31 53 31 62 1 81
-69 46 -211 75 -303 64z"/>
<path d="M5625 720 c-114 -37 -175 -118 -161 -215 13 -86 77 -133 211 -155
108 -18 145 -53 111 -105 -22 -33 -77 -47 -164 -43 l-72 3 0 -61 0 -62 44 -6
c90 -14 230 26 290 82 77 72 75 199 -3 265 -31 26 -65 38 -195 68 -64 15 -82
33 -73 70 10 38 44 53 127 56 l75 2 3 60 3 61 -68 -1 c-38 0 -95 -9 -128 -19z"/>
<path d="M4242 620 c-113 -57 -167 -158 -167 -310 0 -101 25 -166 83 -223 58
-57 120 -79 214 -78 164 2 263 87 298 256 30 145 -27 288 -141 350 -45 24 -68
30 -139 33 -79 3 -89 2 -148 -28z m214 -107 c13 -8 33 -35 45 -60 30 -62 24
-188 -11 -251 -60 -107 -182 -108 -244 -3 -25 44 -27 167 -2 226 43 101 134
139 212 88z"/>
<path d="M4940 628 c-85 -6 -158 -13 -161 -16 -3 -4 -3 -32 -1 -63 l4 -55 84
4 c83 4 84 4 84 -19 0 -13 7 -123 15 -244 8 -121 15 -224 15 -228 0 -10 126
-4 136 6 4 4 1 115 -6 247 -7 132 -11 243 -8 246 4 3 40 8 82 11 l76 6 0 58 0
59 -82 -2 c-46 0 -153 -5 -238 -10z"/>
</g>
</g>
</g>
</svg>
